<svg width="206" height="265" viewBox="0 0 206 265" fill="none" xmlns="http://www.w3.org/2000/svg">
<path d="M174.91 47.521V0H31.0898V47.521H174.91Z" fill="#E5176B"/>
<path d="M79.0701 190.082H126.929V142.562H79.0701V190.082Z" fill="#934AF4"/>
<path d="M124.97 95.041H126.929V0H79.0701V95.041H124.97Z" fill="#E5176B"/>
<path d="M126.929 0V47.521H31.0898V0H126.929Z" fill="#934AF4"/>
<path d="M44.064 265C35.863 265 30.723 259.181 30.723 251.059C30.723 242.937 35.741 237.118 44.064 237.118C52.388 237.118 57.406 242.937 57.406 251.059C57.406 259.181 52.265 265 44.064 265ZM44.064 241.725C39.046 241.725 36.231 245.604 36.231 251.059C36.231 256.514 38.923 260.393 44.064 260.393C49.205 260.393 51.898 256.514 51.898 251.059C51.898 245.604 49.083 241.725 44.064 241.725ZM82.131 253.726H74.665L74.298 254.09V264.151L73.931 264.515H69.279L68.912 264.151V237.845L69.279 237.482H82.254C87.762 237.482 91.679 240.149 91.679 245.604C91.679 251.059 87.639 253.726 82.131 253.726ZM82.131 242.088H74.665L74.298 242.452V248.634L74.665 248.998H82.131C84.457 248.998 86.048 248.271 86.048 245.483C86.048 242.694 84.457 242.088 82.131 242.088ZM139.047 237.482H134.396L134.028 237.845V247.543L133.539 248.028H122.4V253.362H133.539L134.028 253.726V264.151L134.396 264.515H139.047L139.414 264.151V237.845L139.047 237.482ZM175.523 264.515H171.973L171.606 264.151L169.648 259.181L168.913 258.817H159.121L158.387 259.181L156.429 264.151L156.061 264.515H152.512L152.145 264.151V260.272L161.08 237.845L161.447 237.482H166.465L166.833 237.845L175.768 260.272V264.151L175.523 264.515ZM164.14 244.392H163.773L160.223 253.726L160.59 254.09H167.2L167.567 253.726L164.14 244.392ZM205.632 242.088H197.799L197.432 242.573V264.151L196.942 264.515H192.291L191.923 264.151V242.573L191.556 242.088H183.723L183.355 241.725V237.845L183.723 237.482H205.632L206 237.845V241.725L205.632 242.088ZM22.277 242.088H14.443L14.076 242.573V264.151L13.709 264.515H8.935L8.56799 264.151V242.573L8.20099 242.088H0.367004L0 241.725V237.845L0.367004 237.482H22.277L22.644 237.845V241.725L22.277 242.088Z" fill="#231F20"/>
<path d="M122.401 237.845V248.028H117.26L116.893 247.543V237.845L117.26 237.482H122.033L122.401 237.845ZM122.401 253.362V264.151L122.033 264.515H117.26L116.893 264.151V253.726L117.26 253.362H122.401Z" fill="#231F20"/>
</svg>
