<svg width="151" height="152" viewBox="0 0 151 152" fill="none" xmlns="http://www.w3.org/2000/svg">
<path d="M69.5 150.8C50.6 149.1 33.1 140.5 20.2 126.6C7.2 112.6 0 94.5 0 75.6C0 33.9 34.4 0 76.6 0C103.3 0 127.7 13.5 141.8 36L142.8 37.7L131.9 48.6L130.3 45.8C119.3 26.7 98.8 14.8 76.6 14.8C42.6 14.8 14.9 42.1 14.9 75.6C14.9 105.5 36.6 130.7 66.5 135.6L67.9 135.8L73.2 151.2L69.5 150.8Z" fill="#B30838"/>
<path d="M12.5 75.5C12.5 40.6 41.3 12.3 76.6 12.3C100.5 12.3 121.5 25.3 132.5 44.6L139.8 37.3C126.6 16.4 103.2 2.5 76.6 2.5C35.7 2.5 2.5 35.2 2.5 75.5C2.5 113.5 32.1 144.8 69.7 148.3L66.1 137.9C35.7 133 12.5 106.9 12.5 75.5Z" fill="#B30838"/>
<path d="M92 119.4L104.5 85H123.5L95.4 147.3H86.5L58.5 85H77.6L92 119.4Z" fill="#B30838"/>
<path d="M150.6 68C150.6 73.7 146 78.3 140.3 78.3C134.6 78.3 130 73.7 130 68C130 62.4 134.6 57.7 140.3 57.7C146 57.7 150.6 62.4 150.6 68Z" fill="#B30838"/>
<path d="M149 85H131.6V146H149V85Z" fill="#B30838"/>
</svg>
